<?xml version="1.0" encoding="UTF-8" standalone="no"?>
<svg
   xmlns:dc="http://purl.org/dc/elements/1.1/"
   xmlns:cc="http://creativecommons.org/ns#"
   xmlns:rdf="http://www.w3.org/1999/02/22-rdf-syntax-ns#"
   xmlns:svg="http://www.w3.org/2000/svg"
   xmlns="http://www.w3.org/2000/svg"
   xmlns:xlink="http://www.w3.org/1999/xlink"
   xmlns:sodipodi="http://sodipodi.sourceforge.net/DTD/sodipodi-0.dtd"
   xmlns:inkscape="http://www.inkscape.org/namespaces/inkscape"
   id="Layer_1"
   data-name="Layer 1"
   viewBox="0 0 330.8353 370.36998"
   version="1.1"
   inkscape:version="0.91 r13725"
   sodipodi:docname="ens.svg"
   width="330.8353"
   height="370.37">
  <metadata
     id="metadata3430">
    <rdf:RDF>
      <cc:Work
         rdf:about="">
        <dc:format>image/svg+xml</dc:format>
        <dc:type
           rdf:resource="http://purl.org/dc/dcmitype/StillImage" />
        <dc:title></dc:title>
      </cc:Work>
    </rdf:RDF>
  </metadata>
  <sodipodi:namedview
     pagecolor="#ffffff"
     bordercolor="#666666"
     borderopacity="1"
     objecttolerance="10"
     gridtolerance="10"
     guidetolerance="10"
     inkscape:pageopacity="0"
     inkscape:pageshadow="2"
     inkscape:window-width="1178"
     inkscape:window-height="778"
     id="namedview3428"
     showgrid="false"
     fit-margin-top="0"
     fit-margin-left="0"
     fit-margin-right="0"
     fit-margin-bottom="0"
     inkscape:zoom="1.1525088"
     inkscape:cx="166.29029"
     inkscape:cy="156.47877"
     inkscape:window-x="0"
     inkscape:window-y="0"
     inkscape:window-maximized="0"
     inkscape:current-layer="Layer_1" />
  <defs
     id="defs3404">
    <style
       id="style3406">.cls-1{fill:#fff}</style>
    <linearGradient
       id="linear-gradient"
       x1="299.89001"
       y1="21.809999"
       x2="161.25"
       y2="172.05"
       gradientUnits="userSpaceOnUse">
      <stop
         offset=".58"
         stop-color="#fff"
         stop-opacity=".7"
         id="stop3409" />
      <stop
         offset=".66"
         stop-color="#fff"
         stop-opacity=".6"
         id="stop3411" />
      <stop
         offset=".82"
         stop-color="#fff"
         stop-opacity=".35"
         id="stop3413" />
      <stop
         offset=".91"
         stop-color="#fff"
         stop-opacity=".2"
         id="stop3415" />
    </linearGradient>
    <linearGradient
       id="linear-gradient-2"
       x1="302.42001"
       y1="383.35999"
       x2="441.04999"
       y2="233.12"
       xlink:href="#linear-gradient"
       gradientTransform="translate(-135.2647,-17.4)" />
    <linearGradient
       inkscape:collect="always"
       xlink:href="#linear-gradient"
       id="linearGradient3434"
       gradientUnits="userSpaceOnUse"
       x1="299.89001"
       y1="21.809999"
       x2="161.25"
       y2="172.05"
       gradientTransform="translate(-135.2647,-17.4)" />
  </defs>
  <path
     d="m 38.735298,154.54 c 3.79,8.08 13.13,24 13.13,24 L 159.8653,0 54.485298,73.6 c -8.24,6.16 -12.35,11.17 -15,16.49 -14.35,28.93 -4.49,56.36 -0.75,64.45 z"
     id="path3420"
     inkscape:connector-curvature="0"
     style="fill:url(#linearGradient3434)" />
  <path
     class="cls-1"
     d="M 0.93529824,206.86 C 3.7152982,241.92 21.515298,273.45 46.595298,291.54 L 159.7353,370.36 c 0,0 -70.700002,-101.93 -130.390002,-203.36 -6.47,-11 -10.86,-25.76 -12,-34.58 a 55.36,55.36 0 0 1 0.13,-16.59 c -1.55,2.87 -4.36,8.8 -4.36,8.8 -5.3899998,12.1 -10.8899998,25.92 -12.22999976,39.1 -0.89,9.29 -1.46,20.36 0.05,43.13 z"
     id="path3422"
     inkscape:connector-curvature="0"
     style="fill:#ffffff" />
  <path
     d="m 292.9953,215.83 c -3.79,-8.08 -13.13,-24 -13.13,-24 l -108,178.54 105.39,-73.59 c 8.24,-6.16 12.35,-11.17 15,-16.49 14.39,-28.94 4.48,-56.37 0.74,-64.46 z"
     id="path3424"
     inkscape:connector-curvature="0"
     style="fill:url(#linear-gradient-2)" />
  <path
     class="cls-1"
     d="m 330.8353,163.51 c -2.78,-35.06 -20.58,-66.59 -45.66,-84.68 L 172.0353,0.01 c 0,0 70.7,101.93 130.39,203.37 6.47,11 10.86,25.76 12,34.58"
     id="path3426"
     inkscape:connector-curvature="0"
     style="fill:#ffffff" />
</svg>
