<?xml version="1.0" encoding="utf-8"?>
<!-- Generator: Adobe Illustrator 16.0.0, SVG Export Plug-In . SVG Version: 6.00 Build 0)  -->
<!DOCTYPE svg PUBLIC "-//W3C//DTD SVG 1.1//EN" "http://www.w3.org/Graphics/SVG/1.1/DTD/svg11.dtd">
<svg version="1.1" id="Layer_1" xmlns="http://www.w3.org/2000/svg" xmlns:xlink="http://www.w3.org/1999/xlink" x="0px" y="0px"
	 width="144px" height="144px" viewBox="0 0 144 144" enable-background="new 0 0 144 144" xml:space="preserve">
<polygon fill="#50B855" points="72.001,144 9.646,108 9.646,36 72.001,0 134.354,36 134.354,108 "/>
<g>
	<path fill="#FFFFFF" d="M111.209,56.33c2.504-3.703,4.327-8.185,3.83-11.976c-0.55-2.725-2.447-4.693-5.196-4.333
		c-3.886,0.509-6.373,5.078-5.727,10.007c0.285,2.181,1.128,4.191,2.241,6.07c-0.987,1.287-1.799,2.454-2.763,3.93
		c-0.234,0.417-0.362,0.915-0.312,1.294c0.075,0.569,0.351,1.208,0.875,1.525c0.429,0.329,1.01,0.35,1.483,0.287
		c0.569-0.074,1.102-0.433,1.417-0.957c0.47-0.833,1.034-1.678,1.61-2.429c6.18,8.158,7.962,10.72,8.604,14.878
		c0.842,7.894-3.997,13.637-11.676,14.644c-5.498,0.721-10.867-2.722-11.625-8.504c-0.379-5.832,2.463-10.64,7.676-11.323
		c2.465-0.323,5.146,1.736,5.758,4.935c0.148,1.138,1.113,1.879,2.251,1.729s1.879-1.114,1.73-2.252
		c-0.873-5.188-5.427-9.027-10.354-8.381c-4.777,0.626-8.135,3.323-9.828,7.384c-0.09,0.15-0.167,0.314-0.229,0.491
		c-4.143,13.271-6.896,18.742-11.351,19.325c-1.991,0.261-3.005-0.859-3.366-3.608c-0.956-7.299,4.811-20.686,3.704-29.123
		c-0.659-5.024-3.254-8.637-10.079-7.743c-3.127,0.41-5.83,2.596-8.207,5.8l0.51-1.995c0.312-1.294-0.821-2.592-2.243-2.405
		c-0.854,0.111-1.549,0.685-1.722,1.575c-1.324,5.943-3.071,14.174-4.905,22.775c-0.064,0.112-0.118,0.229-0.161,0.355
		c-3.706,12.924-9.052,19.217-16.85,20.046c-5.712,0.556-9.18-2.364-9.699-7.792c-0.166-2.003-0.118-3.842,0.224-6.393
		c10.187-3.939,23.515-11.857,22.197-21.905c-0.596-4.55-4.237-6.58-8.977-5.958c-11.186,1.466-18.46,22.475-17.438,34.683
		c0.829,7.798,6.252,12.391,14.12,11.358c5.195-0.68,9.452-3.114,12.957-7.507c-0.236,1.084-0.47,2.152-0.699,3.201
		c-0.229,1.188,0.476,2.155,1.567,2.397c1.079,0.148,2.155-0.476,2.386-1.662l4.097-19.267c0.007-0.026,0.015-0.051,0.022-0.075
		c0.03-0.152,0.062-0.281,0.082-0.407c2-8.464,7.504-22.089,13.261-22.844c3.697-0.484,5.216,1.534,5.575,4.283
		c1.081,8.247-4.872,20.212-3.704,29.124c0.609,4.645,3.318,7.663,7.869,7.067c4.626-0.606,7.851-3.96,10.992-11.412
		c2.535,5.456,8.552,8.851,14.979,8.008c9.574-1.255,16.301-8.789,15.148-19.053C120.325,67.767,117.332,64.784,111.209,56.33z
		 M108.085,49.412c-0.175-1.327-0.114-3.071,0.875-4.357c0.823-1.072,1.829-1.494,2.003-0.166c0.273,2.085-0.763,5.21-2.007,7.495
		C108.535,51.378,108.222,50.455,108.085,49.412z M40.571,60.286c2.087-0.273,4.139-0.06,4.475,2.5
		c0.919,7.014-9.753,13.137-17.297,16.634C29.825,71.722,34.031,61.143,40.571,60.286z"/>
</g>
</svg>
